<svg width="24" height="24" viewBox="0 0 24 24" fill="none" xmlns="http://www.w3.org/2000/svg">
<mask id="mask0_437_13277" style="mask-type:alpha" maskUnits="userSpaceOnUse" x="0" y="0" width="24" height="24">
<circle cx="12" cy="12" r="12" fill="#D9D9D9"/>
</mask>
<g mask="url(#mask0_437_13277)">
<g filter="url(#filter0_f_437_13277)">
<path d="M15.8469 15.5402C7.57455 25.7733 12.1872 24.6399 6.50715 26C3.7243 24.2189 5.74473 27.3277 3 22.6969C3.49558 19.1671 11.6615 1 18.0198 1C23.0518 3.00777 21.2982 5.76036 15.8469 15.5402Z" fill="#8000FF"/>
</g>
<g filter="url(#filter1_f_437_13277)">
<path d="M7.56057 9.63213C-1.17131 17.8187 3.69762 16.9119 -2.298 18C-5.23546 16.5751 -3.10279 19.0622 -6 15.3575C-5.47689 12.5337 3.14272 -2 9.8542 -2C15.1658 -0.393782 13.3148 1.80829 7.56057 9.63213Z" fill="#FF3D00"/>
<path d="M7.56057 9.63213C-1.17131 17.8187 3.69762 16.9119 -2.298 18C-5.23546 16.5751 -3.10279 19.0622 -6 15.3575C-5.47689 12.5337 3.14272 -2 9.8542 -2C15.1658 -0.393782 13.3148 1.80829 7.56057 9.63213Z" fill="#FFD600"/>
</g>
<g filter="url(#filter2_f_437_13277)">
<path d="M20.4194 17.9586C13.0663 27.7824 17.1664 26.6943 12.1175 28C9.64383 26.2902 11.4398 29.2746 9 24.829C9.44052 21.4404 16.6991 4 22.3509 4C26.8238 5.92746 25.2651 8.56995 20.4194 17.9586Z" fill="#9900D1"/>
</g>
<g filter="url(#filter3_f_437_13277)">
<path d="M23.2783 19.4689C17.3038 26.8368 20.6352 26.0207 16.5329 27C14.5231 25.7176 15.9823 27.956 14 24.6218C14.3579 22.0803 20.2555 9 24.8476 9C28.4818 10.4456 27.2154 12.4275 23.2783 19.4689Z" fill="#6141FF"/>
<path d="M23.2783 19.4689C17.3038 26.8368 20.6352 26.0207 16.5329 27C14.5231 25.7176 15.9823 27.956 14 24.6218C14.3579 22.0803 20.2555 9 24.8476 9C28.4818 10.4456 27.2154 12.4275 23.2783 19.4689Z" fill="#0683F7"/>
</g>
<g filter="url(#filter4_f_437_13277)">
<path d="M11.5606 12.9586C2.82869 22.7824 7.69762 21.6943 1.702 23C-1.23546 21.2902 0.897214 24.2746 -2 19.829C-1.47689 16.4404 7.14272 -1 13.8542 -1C19.1658 0.927462 17.3148 3.56995 11.5606 12.9586Z" fill="#EF0000"/>
</g>
<path fill-rule="evenodd" clip-rule="evenodd" d="M8.31555 22.1225L8.28064 22.0861C7.63259 21.4112 7.42039 20.56 7.42039 19.7706V13.0047C6.88969 12.9309 6.33732 12.7305 5.86852 12.3063L5.84383 12.284L5.82006 12.2607C5.22563 11.678 5 10.938 5 10.2306C5 9.53743 5.20947 8.7512 5.86852 8.15485C6.37497 7.69658 6.97897 7.49953 7.54781 7.44112C7.76904 6.13509 8.29271 4.97085 9.22944 4.0675C10.4622 2.86222 12.138 2.26105 14.0404 2.08978L14.0464 2.08924L14.8954 2.01582C15.491 1.95931 16.2015 2.04053 16.8278 2.48329C17.3401 2.82994 17.6994 3.32262 17.8729 3.90407C18.0245 4.3966 18.0365 4.89996 17.9303 5.38567C17.8154 5.91099 17.5635 6.37689 17.2048 6.76438C16.727 7.28264 16.1004 7.53164 15.4706 7.57387L15.4488 7.5754C15.8052 7.688 16.1556 7.87149 16.4688 8.15485C17.1278 8.7512 17.3373 9.53743 17.3373 10.2306C17.3373 10.938 17.1117 11.678 16.5172 12.2607L16.4935 12.284L16.4688 12.3063C15.8432 12.8723 15.0689 13.0399 14.3958 13.0399H13.9336V19.7706C13.9336 20.5389 13.7443 21.4202 13.0692 22.1033C12.3845 22.7962 11.4835 23 10.6896 23C9.88375 23 9.03151 22.7831 8.35264 22.1567L8.31555 22.1225ZM12.2528 11.3922H14.3958C14.7992 11.3922 15.1102 11.2933 15.3287 11.0956C15.5472 10.8814 15.6565 10.5931 15.6565 10.2306C15.6565 9.85162 15.5472 9.56328 15.3287 9.36556C15.1102 9.16784 14.7992 9.06898 14.3958 9.06898H12.2528V8.54997C12.2528 8.11685 12.3108 7.74063 12.4269 7.42132C12.5361 7.12113 12.6965 6.87123 12.9083 6.67163C13.3453 6.25971 14.0429 6.0208 15.0009 5.95489L15.3539 5.93018C15.606 5.9137 15.8077 5.82308 15.959 5.65831C16.1271 5.47707 16.2363 5.27111 16.2868 5.04044C16.3372 4.80977 16.3288 4.58733 16.2616 4.37313C16.1943 4.14246 16.0599 3.96122 15.8582 3.8294C15.6565 3.68111 15.3875 3.62345 15.0514 3.6564L14.1941 3.73054C12.5469 3.87883 11.2863 4.38137 10.4123 5.23816C9.84382 5.78467 9.46023 6.51239 9.26148 7.42132C9.21118 7.65138 9.17271 7.89306 9.14609 8.14634C9.12695 8.32852 9.11393 8.51671 9.10704 8.7109C9.10316 8.82012 9.10122 8.93125 9.10122 9.04427V9.06898H7.94145C7.74608 9.06898 7.5724 9.09217 7.42039 9.13855C7.25854 9.18793 7.12127 9.2636 7.00859 9.36556C6.79008 9.56328 6.68083 9.85162 6.68083 10.2306C6.68083 10.5931 6.79008 10.8814 7.00859 11.0956C7.12127 11.1976 7.25854 11.2732 7.42039 11.3226C7.5724 11.369 7.74608 11.3922 7.94145 11.3922H9.10122V19.7706C9.10122 20.2814 9.23569 20.6768 9.50462 20.9569C9.79036 21.2205 10.1854 21.3523 10.6896 21.3523C11.7317 21.3523 12.2528 20.8251 12.2528 19.7706V11.3922Z" fill="white"/>
</g>
<defs>
<filter id="filter0_f_437_13277" x="-7" y="-9" width="38" height="45" filterUnits="userSpaceOnUse" color-interpolation-filters="sRGB">
<feFlood flood-opacity="0" result="BackgroundImageFix"/>
<feBlend mode="normal" in="SourceGraphic" in2="BackgroundImageFix" result="shape"/>
<feGaussianBlur stdDeviation="5" result="effect1_foregroundBlur_437_13277"/>
</filter>
<filter id="filter1_f_437_13277" x="-16" y="-12" width="39" height="40" filterUnits="userSpaceOnUse" color-interpolation-filters="sRGB">
<feFlood flood-opacity="0" result="BackgroundImageFix"/>
<feBlend mode="normal" in="SourceGraphic" in2="BackgroundImageFix" result="shape"/>
<feGaussianBlur stdDeviation="5" result="effect1_foregroundBlur_437_13277"/>
</filter>
<filter id="filter2_f_437_13277" x="-1" y="-6" width="36" height="44" filterUnits="userSpaceOnUse" color-interpolation-filters="sRGB">
<feFlood flood-opacity="0" result="BackgroundImageFix"/>
<feBlend mode="normal" in="SourceGraphic" in2="BackgroundImageFix" result="shape"/>
<feGaussianBlur stdDeviation="5" result="effect1_foregroundBlur_437_13277"/>
</filter>
<filter id="filter3_f_437_13277" x="4" y="-1" width="33" height="38" filterUnits="userSpaceOnUse" color-interpolation-filters="sRGB">
<feFlood flood-opacity="0" result="BackgroundImageFix"/>
<feBlend mode="normal" in="SourceGraphic" in2="BackgroundImageFix" result="shape"/>
<feGaussianBlur stdDeviation="5" result="effect1_foregroundBlur_437_13277"/>
</filter>
<filter id="filter4_f_437_13277" x="-12" y="-11" width="39" height="44" filterUnits="userSpaceOnUse" color-interpolation-filters="sRGB">
<feFlood flood-opacity="0" result="BackgroundImageFix"/>
<feBlend mode="normal" in="SourceGraphic" in2="BackgroundImageFix" result="shape"/>
<feGaussianBlur stdDeviation="5" result="effect1_foregroundBlur_437_13277"/>
</filter>
</defs>
</svg>
