<svg width="938" height="631" viewBox="0 0 938 631" fill="none" xmlns="http://www.w3.org/2000/svg">
<g clip-path="url(#clip0_424_13113)">
<g filter="url(#filter0_f_424_13113)">
<path d="M499.812 335.839C348.613 452.907 432.922 439.94 329.103 455.5C278.239 435.124 315.168 470.689 265 417.712C274.058 377.332 423.313 169.5 539.528 169.5C631.502 192.469 599.45 223.959 499.812 335.839Z" fill="#8000FF"/>
</g>
<g filter="url(#filter1_f_424_13113)">
<path d="M361.401 307.697C223.988 419.034 300.61 406.702 206.258 421.5C160.031 402.122 193.593 435.946 148 385.562C156.232 347.158 291.878 149.5 397.495 149.5C481.082 171.345 451.953 201.293 361.401 307.697Z" fill="#FF3D00"/>
<path d="M361.401 307.697C223.988 419.034 300.61 406.702 206.258 421.5C160.031 402.122 193.593 435.946 148 385.562C156.232 347.158 291.878 149.5 397.495 149.5C481.082 171.345 451.953 201.293 361.401 307.697Z" fill="#FFD600"/>
</g>
<g filter="url(#filter2_f_424_13113)">
<path d="M600.828 363.095C462.497 478.934 539.631 466.104 444.647 481.5C398.112 461.338 431.898 496.53 386 444.109C394.287 404.152 530.84 198.5 637.164 198.5C721.31 221.228 691.986 252.387 600.828 363.095Z" fill="#9900D1"/>
</g>
<g filter="url(#filter3_f_424_13113)">
<path d="M717.57 357.596C601.298 453.378 666.131 442.769 586.295 455.5C547.18 438.829 575.579 467.927 537 424.583C543.966 391.544 658.743 221.5 748.111 221.5C818.839 240.293 794.191 266.057 717.57 357.596Z" fill="#6141FF"/>
<path d="M717.57 357.596C601.298 453.378 666.131 442.769 586.295 455.5C547.18 438.829 575.579 467.927 537 424.583C543.966 391.544 658.743 221.5 748.111 221.5C818.839 240.293 794.191 266.057 717.57 357.596Z" fill="#0683F7"/>
</g>
<g filter="url(#filter4_f_424_13113)">
<path d="M469.098 327.258C318.358 443.916 402.412 430.995 298.908 446.5C248.198 426.196 285.015 461.636 235 408.845C244.031 368.605 392.832 161.5 508.694 161.5C600.388 184.389 568.434 215.768 469.098 327.258Z" fill="#EF0000"/>
</g>
<mask id="path-7-outside-1_424_13113" maskUnits="userSpaceOnUse" x="221" y="213" width="504" height="207" fill="black">
<rect fill="white" x="221" y="213" width="504" height="207"/>
<path d="M266.556 370.568C262.636 370.568 259.565 369.523 257.344 367.432C255.253 365.211 254.208 362.075 254.208 358.024V291.58H245.192C242.056 291.58 239.639 290.796 237.94 289.228C236.241 287.529 235.392 285.243 235.392 282.368C235.392 279.363 236.241 277.076 237.94 275.508C239.639 273.94 242.056 273.156 245.192 273.156H261.264L254.208 279.624V272.96C254.208 259.763 257.54 249.767 264.204 242.972C270.868 236.177 280.537 232.127 293.212 230.82L299.092 230.232C302.097 229.971 304.449 230.363 306.148 231.408C307.977 232.453 309.153 233.891 309.676 235.72C310.329 237.419 310.46 239.248 310.068 241.208C309.676 243.037 308.892 244.671 307.716 246.108C306.54 247.415 305.037 248.133 303.208 248.264L298.504 248.656C291.579 249.179 286.548 251.073 283.412 254.34C280.276 257.607 278.708 262.507 278.708 269.04V276.292L275.572 273.156H329.864C333.784 273.156 336.789 274.332 338.88 276.684C340.971 278.905 342.016 282.107 342.016 286.288V357.044C342.016 361.225 340.971 364.492 338.88 366.844C336.92 369.196 333.915 370.372 329.864 370.372C325.944 370.372 322.873 369.196 320.652 366.844C318.561 364.492 317.516 361.225 317.516 357.044V291.58H278.708V358.024C278.708 366.387 274.657 370.568 266.556 370.568ZM330.256 253.556C325.813 253.556 322.351 252.445 319.868 250.224C317.516 247.872 316.34 244.671 316.34 240.62C316.34 236.439 317.516 233.237 319.868 231.016C322.351 228.795 325.813 227.684 330.256 227.684C334.829 227.684 338.292 228.795 340.644 231.016C343.127 233.237 344.368 236.439 344.368 240.62C344.368 244.671 343.127 247.872 340.644 250.224C338.292 252.445 334.829 253.556 330.256 253.556ZM360.112 370.568C356.192 370.568 353.187 369.523 351.096 367.432C349.006 365.211 347.96 362.075 347.96 358.024V283.936C347.96 279.885 349.006 276.815 351.096 274.724C353.187 272.633 356.127 271.588 359.916 271.588C363.706 271.588 366.646 272.633 368.736 274.724C370.827 276.815 371.872 279.885 371.872 283.936V297.264L369.716 292.364C372.591 285.439 377.034 280.212 383.044 276.684C389.186 273.025 396.111 271.196 403.82 271.196C411.53 271.196 417.867 272.633 422.832 275.508C427.798 278.383 431.522 282.76 434.004 288.64C436.487 294.389 437.728 301.707 437.728 310.592V358.024C437.728 362.075 436.683 365.211 434.592 367.432C432.502 369.523 429.496 370.568 425.576 370.568C421.656 370.568 418.586 369.523 416.364 367.432C414.274 365.211 413.228 362.075 413.228 358.024V311.768C413.228 304.32 411.791 298.897 408.916 295.5C406.172 292.103 401.86 290.404 395.98 290.404C388.794 290.404 383.044 292.691 378.732 297.264C374.551 301.707 372.46 307.652 372.46 315.1V358.024C372.46 366.387 368.344 370.568 360.112 370.568ZM486.721 370.96C476.79 370.96 468.166 368.935 460.849 364.884C453.531 360.833 447.847 355.084 443.797 347.636C439.746 340.057 437.721 331.172 437.721 320.98C437.721 313.271 438.831 306.411 441.053 300.4C443.405 294.259 446.737 289.032 451.049 284.72C455.361 280.277 460.522 276.945 466.533 274.724C472.543 272.372 479.273 271.196 486.721 271.196C496.651 271.196 505.275 273.221 512.593 277.272C519.91 281.323 525.594 287.072 529.645 294.52C533.695 301.968 535.721 310.788 535.721 320.98C535.721 328.689 534.545 335.615 532.193 341.756C529.971 347.897 526.705 353.189 522.393 357.632C518.081 361.944 512.919 365.276 506.909 367.628C500.898 369.849 494.169 370.96 486.721 370.96ZM486.721 352.34C491.555 352.34 495.802 351.164 499.461 348.812C503.119 346.46 505.929 342.997 507.889 338.424C509.979 333.72 511.025 327.905 511.025 320.98C511.025 310.527 508.803 302.752 504.361 297.656C499.918 292.429 494.038 289.816 486.721 289.816C481.886 289.816 477.639 290.992 473.981 293.344C470.322 295.565 467.447 299.028 465.357 303.732C463.397 308.305 462.417 314.055 462.417 320.98C462.417 331.303 464.638 339.143 469.081 344.5C473.523 349.727 479.403 352.34 486.721 352.34ZM548.494 405.848C544.574 405.848 541.569 404.803 539.478 402.712C537.388 400.621 536.342 397.551 536.342 393.5V283.936C536.342 279.885 537.388 276.815 539.478 274.724C541.569 272.633 544.509 271.588 548.298 271.588C552.218 271.588 555.224 272.633 557.314 274.724C559.405 276.815 560.45 279.885 560.45 283.936V299.224L558.294 293.344C560.254 286.68 564.24 281.323 570.25 277.272C576.392 273.221 583.513 271.196 591.614 271.196C599.977 271.196 607.294 273.221 613.566 277.272C619.969 281.323 624.934 287.072 628.462 294.52C631.99 301.837 633.754 310.657 633.754 320.98C633.754 331.172 631.99 340.057 628.462 347.636C624.934 355.084 620.034 360.833 613.762 364.884C607.49 368.935 600.108 370.96 591.614 370.96C583.644 370.96 576.653 369 570.642 365.08C564.632 361.029 560.581 355.803 558.49 349.4H560.842V393.5C560.842 397.551 559.732 400.621 557.51 402.712C555.42 404.803 552.414 405.848 548.494 405.848ZM584.754 352.34C589.589 352.34 593.836 351.164 597.494 348.812C601.153 346.46 603.962 342.997 605.922 338.424C608.013 333.72 609.058 327.905 609.058 320.98C609.058 310.527 606.837 302.752 602.394 297.656C597.952 292.429 592.072 289.816 584.754 289.816C579.92 289.816 575.673 290.992 572.014 293.344C568.356 295.565 565.481 299.028 563.39 303.732C561.43 308.305 560.45 314.055 560.45 320.98C560.45 331.303 562.672 339.143 567.114 344.5C571.557 349.727 577.437 352.34 584.754 352.34ZM669.35 370.96C663.731 370.96 657.786 370.372 651.514 369.196C645.242 368.02 639.623 365.995 634.658 363.12C632.567 361.813 631.064 360.311 630.15 358.612C629.366 356.783 629.039 355.019 629.17 353.32C629.431 351.491 630.084 349.923 631.13 348.616C632.306 347.309 633.743 346.46 635.442 346.068C637.271 345.676 639.231 346.003 641.322 347.048C646.548 349.531 651.448 351.295 656.022 352.34C660.595 353.255 665.103 353.712 669.546 353.712C675.818 353.712 680.456 352.667 683.462 350.576C686.598 348.355 688.166 345.48 688.166 341.952C688.166 338.947 687.12 336.66 685.03 335.092C683.07 333.393 680.064 332.152 676.014 331.368L656.414 327.644C648.312 326.076 642.106 323.136 637.794 318.824C633.612 314.381 631.522 308.697 631.522 301.772C631.522 295.5 633.22 290.077 636.618 285.504C640.146 280.931 644.98 277.403 651.122 274.92C657.263 272.437 664.319 271.196 672.29 271.196C678.039 271.196 683.396 271.849 688.362 273.156C693.458 274.332 698.358 276.227 703.062 278.84C705.022 279.885 706.328 281.257 706.982 282.956C707.766 284.655 707.962 286.419 707.57 288.248C707.178 289.947 706.394 291.515 705.218 292.952C704.042 294.259 702.539 295.108 700.71 295.5C699.011 295.761 697.051 295.369 694.83 294.324C690.779 292.233 686.859 290.731 683.07 289.816C679.411 288.901 675.883 288.444 672.486 288.444C666.083 288.444 661.314 289.555 658.178 291.776C655.172 293.997 653.67 296.937 653.67 300.596C653.67 303.34 654.584 305.627 656.414 307.456C658.243 309.285 661.052 310.527 664.842 311.18L684.442 314.904C692.935 316.472 699.338 319.347 703.65 323.528C708.092 327.709 710.314 333.328 710.314 340.384C710.314 349.923 706.59 357.436 699.142 362.924C691.694 368.281 681.763 370.96 669.35 370.96Z"/>
</mask>
<path d="M257.344 367.432L247.149 377.027L247.44 377.336L247.749 377.627L257.344 367.432ZM254.208 291.58H268.208V277.58H254.208V291.58ZM237.94 289.228L228.041 299.127L228.238 299.325L228.444 299.515L237.94 289.228ZM237.94 275.508L247.436 285.795L247.436 285.795L237.94 275.508ZM261.264 273.156L270.724 283.476L297.255 259.156H261.264V273.156ZM254.208 279.624H240.208V311.449L263.668 289.944L254.208 279.624ZM264.204 242.972L274.199 252.775L274.199 252.775L264.204 242.972ZM293.212 230.82L291.819 216.889L291.798 216.892L291.776 216.894L293.212 230.82ZM299.092 230.232L297.879 216.285L297.789 216.292L297.699 216.301L299.092 230.232ZM306.148 231.408L298.811 243.331L299.004 243.45L299.202 243.563L306.148 231.408ZM309.676 235.72L296.215 239.566L296.386 240.165L296.609 240.746L309.676 235.72ZM310.068 241.208L323.757 244.141L323.777 244.048L323.796 243.954L310.068 241.208ZM307.716 246.108L318.122 255.474L318.343 255.228L318.551 254.973L307.716 246.108ZM303.208 248.264L302.211 234.3L302.128 234.305L302.045 234.312L303.208 248.264ZM298.504 248.656L299.558 262.616L299.612 262.612L299.667 262.608L298.504 248.656ZM283.412 254.34L273.313 244.645L273.313 244.645L283.412 254.34ZM278.708 276.292L268.809 286.191L292.708 310.091V276.292H278.708ZM275.572 273.156V259.156H241.773L265.673 283.055L275.572 273.156ZM338.88 276.684L328.416 285.985L328.549 286.134L328.685 286.279L338.88 276.684ZM338.88 366.844L328.416 357.543L328.268 357.71L328.125 357.881L338.88 366.844ZM320.652 366.844L310.188 376.145L310.329 376.303L310.474 376.457L320.652 366.844ZM317.516 291.58H331.516V277.58H317.516V291.58ZM278.708 291.58V277.58H264.708V291.58H278.708ZM319.868 250.224L309.969 260.123L310.243 260.398L310.533 260.657L319.868 250.224ZM319.868 231.016L310.533 220.583L310.392 220.708L310.255 220.838L319.868 231.016ZM340.644 231.016L331.031 241.194L331.168 241.324L331.309 241.449L340.644 231.016ZM340.644 250.224L350.257 260.402L350.265 260.395L350.272 260.387L340.644 250.224ZM266.556 356.568C265.821 356.568 265.641 356.468 265.825 356.531C265.922 356.564 266.093 356.633 266.306 356.76C266.522 356.888 266.739 357.049 266.939 357.237L247.749 377.627C253.245 382.799 260.124 384.568 266.556 384.568V356.568ZM267.539 357.837C267.751 358.062 267.923 358.298 268.054 358.522C268.183 358.742 268.248 358.909 268.274 358.987C268.32 359.126 268.208 358.871 268.208 358.024H240.208C240.208 364.442 241.901 371.451 247.149 377.027L267.539 357.837ZM268.208 358.024V291.58H240.208V358.024H268.208ZM254.208 277.58H245.192V305.58H254.208V277.58ZM245.192 277.58C244.761 277.58 244.878 277.523 245.346 277.675C245.869 277.844 246.657 278.221 247.436 278.941L228.444 299.515C233.533 304.213 239.81 305.58 245.192 305.58V277.58ZM247.839 279.329C248.436 279.925 248.888 280.65 249.153 281.364C249.401 282.032 249.392 282.432 249.392 282.368H221.392C221.392 288.174 223.211 294.298 228.041 299.127L247.839 279.329ZM249.392 282.368C249.392 282.157 249.425 282.542 249.153 283.274C248.854 284.078 248.294 285.003 247.436 285.795L228.444 265.221C223.076 270.176 221.392 276.693 221.392 282.368H249.392ZM247.436 285.795C246.657 286.515 245.869 286.892 245.346 287.061C244.878 287.213 244.761 287.156 245.192 287.156V259.156C239.81 259.156 233.533 260.523 228.444 265.221L247.436 285.795ZM245.192 287.156H261.264V259.156H245.192V287.156ZM251.804 262.836L244.748 269.304L263.668 289.944L270.724 283.476L251.804 262.836ZM268.208 279.624V272.96H240.208V279.624H268.208ZM268.208 272.96C268.208 261.989 270.959 256.078 274.199 252.775L254.209 233.169C244.121 243.455 240.208 257.536 240.208 272.96H268.208ZM274.199 252.775C277.905 248.996 284.115 245.832 294.648 244.746L291.776 216.894C276.96 218.421 263.831 223.358 254.209 233.169L274.199 252.775ZM294.605 244.751L300.485 244.163L297.699 216.301L291.819 216.889L294.605 244.751ZM300.305 244.179C300.929 244.125 301.052 244.18 300.808 244.14C300.541 244.095 299.772 243.923 298.811 243.331L313.485 219.485C308.216 216.242 302.426 215.889 297.879 216.285L300.305 244.179ZM299.202 243.563C298.828 243.35 298.199 242.908 297.567 242.135C296.916 241.341 296.464 240.44 296.215 239.566L323.137 231.874C321.499 226.139 317.724 221.898 313.094 219.253L299.202 243.563ZM296.609 240.746C296.435 240.294 296.332 239.818 296.3 239.363C296.268 238.919 296.312 238.604 296.34 238.462L323.796 243.954C324.655 239.658 324.441 235.109 322.743 230.694L296.609 240.746ZM296.379 238.275C296.407 238.144 296.463 237.958 296.565 237.747C296.666 237.535 296.782 237.364 296.881 237.243L318.551 254.973C321.147 251.8 322.903 248.13 323.757 244.141L296.379 238.275ZM297.31 236.742C297.88 236.109 298.672 235.473 299.667 234.997C300.65 234.527 301.552 234.347 302.211 234.3L304.205 262.228C309.475 261.852 314.409 259.599 318.122 255.474L297.31 236.742ZM302.045 234.312L297.341 234.704L299.667 262.608L304.371 262.216L302.045 234.312ZM297.45 234.696C288.856 235.344 279.83 237.855 273.313 244.645L293.511 264.035C293.266 264.291 294.302 263.013 299.558 262.616L297.45 234.696ZM273.313 244.645C266.752 251.479 264.708 260.488 264.708 269.04H292.708C292.708 264.525 293.8 263.735 293.511 264.035L273.313 244.645ZM264.708 269.04V276.292H292.708V269.04H264.708ZM288.608 266.393L285.472 263.257L265.673 283.055L268.809 286.191L288.608 266.393ZM275.572 287.156H329.864V259.156H275.572V287.156ZM329.864 287.156C330.443 287.156 330.387 287.244 329.956 287.075C329.738 286.99 329.464 286.854 329.172 286.651C328.878 286.448 328.623 286.217 328.416 285.985L349.344 267.383C343.966 261.333 336.724 259.156 329.864 259.156V287.156ZM328.685 286.279C328.449 286.028 328.266 285.773 328.133 285.542C328.002 285.316 327.942 285.154 327.924 285.097C327.893 285.003 328.016 285.332 328.016 286.288H356.016C356.016 279.88 354.395 272.742 349.075 267.089L328.685 286.279ZM328.016 286.288V357.044H356.016V286.288H328.016ZM328.016 357.044C328.016 357.992 327.895 358.373 327.898 358.363C327.902 358.351 327.937 358.248 328.027 358.085C328.119 357.92 328.249 357.731 328.416 357.543L349.344 376.145C354.373 370.487 356.016 363.508 356.016 357.044H328.016ZM328.125 357.881C328.404 357.547 328.737 357.237 329.105 356.975C329.471 356.715 329.804 356.551 330.054 356.453C330.534 356.265 330.572 356.372 329.864 356.372V384.372C336.637 384.372 344.217 382.308 349.635 375.807L328.125 357.881ZM329.864 356.372C329.294 356.372 329.29 356.287 329.628 356.416C329.797 356.481 330.012 356.585 330.243 356.739C330.475 356.893 330.673 357.065 330.83 357.231L310.474 376.457C315.888 382.189 322.97 384.372 329.864 384.372V356.372ZM331.116 357.543C331.283 357.731 331.413 357.92 331.505 358.085C331.595 358.248 331.63 358.351 331.634 358.363C331.637 358.373 331.516 357.992 331.516 357.044H303.516C303.516 363.508 305.159 370.487 310.188 376.145L331.116 357.543ZM331.516 357.044V291.58H303.516V357.044H331.516ZM317.516 277.58H278.708V305.58H317.516V277.58ZM264.708 291.58V358.024H292.708V291.58H264.708ZM264.708 358.024C264.708 359.027 264.581 359.347 264.626 359.21C264.69 359.01 264.95 358.377 265.615 357.691C266.288 356.995 266.973 356.664 267.317 356.546C267.589 356.452 267.417 356.568 266.556 356.568V384.568C272.88 384.568 280.167 382.911 285.725 377.173C291.204 371.518 292.708 364.254 292.708 358.024H264.708ZM330.256 239.556C329.176 239.556 328.685 239.418 328.603 239.392C328.569 239.381 328.632 239.398 328.758 239.469C328.887 239.541 329.044 239.648 329.203 239.791L310.533 260.657C316.337 265.85 323.536 267.556 330.256 267.556V239.556ZM329.768 240.325C329.896 240.453 330.027 240.613 330.141 240.793C330.256 240.973 330.325 241.128 330.363 241.232C330.439 241.437 330.34 241.3 330.34 240.62H302.34C302.34 247.522 304.439 254.594 309.969 260.123L329.768 240.325ZM330.34 240.62C330.34 239.817 330.455 239.66 330.363 239.91C330.315 240.042 330.221 240.252 330.059 240.501C329.896 240.752 329.698 240.989 329.481 241.194L310.255 220.838C304.343 226.421 302.34 233.774 302.34 240.62H330.34ZM329.203 241.449C329.044 241.592 328.887 241.699 328.758 241.771C328.632 241.842 328.569 241.859 328.603 241.848C328.685 241.822 329.176 241.684 330.256 241.684V213.684C323.536 213.684 316.337 215.39 310.533 220.583L329.203 241.449ZM330.256 241.684C331.448 241.684 331.961 241.833 332.007 241.848C332.017 241.851 331.904 241.816 331.711 241.705C331.514 241.592 331.275 241.424 331.031 241.194L350.257 220.838C344.398 215.305 336.922 213.684 330.256 213.684V241.684ZM331.309 241.449C331.108 241.269 330.908 241.046 330.733 240.791C330.559 240.538 330.448 240.31 330.384 240.144C330.259 239.822 330.368 239.895 330.368 240.62H358.368C358.368 233.547 356.156 226.11 349.979 220.583L331.309 241.449ZM330.368 240.62C330.368 241.219 330.277 241.273 330.384 240.998C330.436 240.862 330.521 240.689 330.646 240.503C330.77 240.318 330.902 240.169 331.016 240.061L350.272 260.387C356.059 254.906 358.368 247.746 358.368 240.62H330.368ZM331.031 240.046C331.275 239.816 331.514 239.648 331.711 239.535C331.904 239.424 332.017 239.389 332.007 239.392C331.961 239.407 331.448 239.556 330.256 239.556V267.556C336.922 267.556 344.398 265.935 350.257 260.402L331.031 240.046ZM351.096 367.432L340.902 377.027L341.047 377.182L341.197 377.331L351.096 367.432ZM351.096 274.724L341.197 264.824L341.197 264.825L351.096 274.724ZM368.736 274.724L378.636 264.824L378.636 264.824L368.736 274.724ZM371.872 297.264L359.058 302.902L385.872 297.264H371.872ZM369.716 292.364L356.786 286.997L354.492 292.524L356.902 298.002L369.716 292.364ZM383.044 276.684L390.131 288.758L390.17 288.735L390.21 288.711L383.044 276.684ZM422.832 275.508L429.847 263.392L429.847 263.392L422.832 275.508ZM434.004 288.64L421.107 294.086L421.129 294.138L421.151 294.19L434.004 288.64ZM434.592 367.432L444.492 377.331L444.642 377.182L444.787 377.027L434.592 367.432ZM416.364 367.432L406.17 377.027L406.46 377.336L406.769 377.627L416.364 367.432ZM408.916 295.5L398.025 304.297L398.126 304.421L398.229 304.543L408.916 295.5ZM378.732 297.264L368.546 287.66L368.538 287.669L378.732 297.264ZM360.112 356.568C359.368 356.568 359.244 356.466 359.518 356.561C359.663 356.612 359.894 356.709 360.173 356.881C360.455 357.054 360.737 357.274 360.996 357.533L341.197 377.331C346.683 382.817 353.732 384.568 360.112 384.568V356.568ZM361.291 357.837C361.503 358.062 361.676 358.298 361.807 358.522C361.936 358.742 362 358.909 362.026 358.987C362.072 359.126 361.96 358.871 361.96 358.024H333.96C333.96 364.442 335.653 371.451 340.902 377.027L361.291 357.837ZM361.96 358.024V283.936H333.96V358.024H361.96ZM361.96 283.936C361.96 283.08 362.075 282.879 361.997 283.107C361.955 283.232 361.863 283.459 361.689 283.745C361.513 284.036 361.281 284.338 360.996 284.623L341.197 264.825C335.631 270.391 333.96 277.578 333.96 283.936H361.96ZM360.996 284.623C360.764 284.856 360.502 285.063 360.23 285.233C359.959 285.401 359.724 285.504 359.559 285.563C359.24 285.677 359.288 285.588 359.916 285.588V257.588C353.509 257.588 346.598 259.424 341.197 264.824L360.996 284.623ZM359.916 285.588C360.545 285.588 360.593 285.677 360.273 285.563C360.108 285.504 359.873 285.401 359.603 285.233C359.33 285.063 359.069 284.856 358.837 284.623L378.636 264.824C373.235 259.424 366.323 257.588 359.916 257.588V285.588ZM358.837 284.623C358.552 284.338 358.32 284.036 358.144 283.745C357.97 283.459 357.878 283.232 357.835 283.107C357.758 282.879 357.872 283.08 357.872 283.936H385.872C385.872 277.578 384.202 270.391 378.636 264.824L358.837 284.623ZM357.872 283.936V297.264H385.872V283.936H357.872ZM384.687 291.626L382.531 286.726L356.902 298.002L359.058 302.902L384.687 291.626ZM382.647 297.731C384.448 293.391 386.95 290.625 390.131 288.758L375.958 264.61C367.118 269.799 360.734 277.487 356.786 286.997L382.647 297.731ZM390.21 288.711C394.014 286.445 398.429 285.196 403.82 285.196V257.196C393.793 257.196 384.357 259.606 375.879 264.657L390.21 288.711ZM403.82 285.196C409.883 285.196 413.594 286.337 415.818 287.624L429.847 263.392C422.14 258.93 413.176 257.196 403.82 257.196V285.196ZM415.818 287.624C417.854 288.803 419.668 290.677 421.107 294.086L446.902 283.194C443.375 274.843 437.742 267.963 429.847 263.392L415.818 287.624ZM421.151 294.19C422.63 297.615 423.728 302.875 423.728 310.592H451.728C451.728 300.538 450.343 291.163 446.857 283.09L421.151 294.19ZM423.728 310.592V358.024H451.728V310.592H423.728ZM423.728 358.024C423.728 358.871 423.616 359.126 423.663 358.987C423.689 358.909 423.753 358.742 423.882 358.522C424.013 358.298 424.186 358.062 424.398 357.837L444.787 377.027C450.036 371.451 451.728 364.442 451.728 358.024H423.728ZM424.693 357.533C424.952 357.274 425.234 357.054 425.515 356.881C425.794 356.709 426.026 356.612 426.171 356.561C426.445 356.466 426.32 356.568 425.576 356.568V384.568C431.957 384.568 439.006 382.817 444.492 377.331L424.693 357.533ZM425.576 356.568C424.841 356.568 424.661 356.468 424.845 356.531C424.942 356.564 425.113 356.633 425.327 356.76C425.543 356.888 425.76 357.049 425.959 357.237L406.769 377.627C412.265 382.799 419.144 384.568 425.576 384.568V356.568ZM426.559 357.837C426.771 358.062 426.944 358.298 427.075 358.522C427.204 358.742 427.268 358.909 427.294 358.987C427.34 359.126 427.228 358.871 427.228 358.024H399.228C399.228 364.442 400.921 371.451 406.17 377.027L426.559 357.837ZM427.228 358.024V311.768H399.228V358.024H427.228ZM427.228 311.768C427.228 303.065 425.649 293.601 419.604 286.457L398.229 304.543C398.023 304.299 398.296 304.49 398.618 305.702C398.944 306.933 399.228 308.885 399.228 311.768H427.228ZM419.807 286.703C413.558 278.966 404.527 276.404 395.98 276.404V304.404C397.616 304.404 398.345 304.645 398.493 304.704C398.553 304.728 398.493 304.71 398.367 304.62C398.238 304.527 398.117 304.411 398.025 304.297L419.807 286.703ZM395.98 276.404C385.544 276.404 375.892 279.868 368.546 287.66L388.919 306.868C390.196 305.513 392.043 304.404 395.98 304.404V276.404ZM368.538 287.669C361.397 295.256 358.46 304.916 358.46 315.1H386.46C386.46 310.388 387.705 308.157 388.927 306.859L368.538 287.669ZM358.46 315.1V358.024H386.46V315.1H358.46ZM358.46 358.024C358.46 359.009 358.334 359.306 358.386 359.147C358.46 358.923 358.731 358.287 359.396 357.611C360.066 356.93 360.728 356.624 361.024 356.524C361.25 356.447 361.026 356.568 360.112 356.568V384.568C366.443 384.568 373.749 382.943 379.35 377.253C384.911 371.604 386.46 364.308 386.46 358.024H358.46ZM460.849 364.884L454.068 377.133L454.068 377.133L460.849 364.884ZM443.797 347.636L431.45 354.235L431.474 354.28L431.498 354.325L443.797 347.636ZM441.053 300.4L427.979 295.393L427.949 295.47L427.921 295.547L441.053 300.4ZM451.049 284.72L460.948 294.619L461.022 294.546L461.095 294.471L451.049 284.72ZM466.533 274.724L471.386 287.856L471.51 287.81L471.634 287.761L466.533 274.724ZM512.593 277.272L519.373 265.023L519.373 265.023L512.593 277.272ZM529.645 294.52L541.943 287.831L541.943 287.831L529.645 294.52ZM532.193 341.756L519.119 336.749L519.072 336.871L519.027 336.994L532.193 341.756ZM522.393 357.632L532.292 367.531L532.366 367.458L532.439 367.383L522.393 357.632ZM506.909 367.628L511.762 380.76L511.886 380.714L512.01 380.665L506.909 367.628ZM499.461 348.812L491.89 337.036L491.89 337.036L499.461 348.812ZM507.889 338.424L495.095 332.738L495.057 332.823L495.021 332.909L507.889 338.424ZM504.361 297.656L493.694 306.723L493.75 306.79L493.808 306.856L504.361 297.656ZM473.981 293.344L481.246 305.311L481.4 305.218L481.551 305.12L473.981 293.344ZM465.357 303.732L452.563 298.046L452.525 298.131L452.489 298.217L465.357 303.732ZM469.081 344.5L458.304 353.437L458.358 353.502L458.414 353.567L469.081 344.5ZM486.721 356.96C478.717 356.96 472.514 355.34 467.629 352.635L454.068 377.133C463.818 382.53 474.863 384.96 486.721 384.96V356.96ZM467.629 352.635C462.676 349.894 458.892 346.089 456.095 340.947L431.498 354.325C436.803 364.079 444.386 371.773 454.068 377.133L467.629 352.635ZM456.144 341.037C453.363 335.835 451.721 329.297 451.721 320.98H423.721C423.721 333.047 426.129 344.28 431.45 354.235L456.144 341.037ZM451.721 320.98C451.721 314.6 452.641 309.43 454.185 305.253L427.921 295.547C425.022 303.391 423.721 311.941 423.721 320.98H451.721ZM454.127 305.407C455.832 300.955 458.132 297.435 460.948 294.619L441.149 274.821C435.341 280.629 430.978 287.562 427.979 295.393L454.127 305.407ZM461.095 294.471C463.898 291.582 467.266 289.378 471.386 287.856L461.68 261.592C453.778 264.512 446.823 268.973 441.003 274.969L461.095 294.471ZM471.634 287.761C475.789 286.136 480.753 285.196 486.721 285.196V257.196C477.792 257.196 469.297 258.608 461.431 261.687L471.634 287.761ZM486.721 285.196C494.724 285.196 500.927 286.816 505.812 289.521L519.373 265.023C509.623 259.626 498.579 257.196 486.721 257.196V285.196ZM505.812 289.52C510.765 292.262 514.55 296.067 517.346 301.209L541.943 287.831C536.638 278.077 529.055 270.383 519.373 265.023L505.812 289.52ZM517.346 301.209C520.075 306.227 521.721 312.654 521.721 320.98H549.721C549.721 308.922 547.315 297.709 541.943 287.831L517.346 301.209ZM521.721 320.98C521.721 327.267 520.763 332.456 519.119 336.749L545.267 346.763C548.326 338.774 549.721 330.111 549.721 320.98H521.721ZM519.027 336.994C517.443 341.375 515.202 344.939 512.347 347.881L532.439 367.383C538.207 361.439 542.5 354.42 545.358 346.518L519.027 336.994ZM512.493 347.733C509.626 350.6 506.126 352.901 501.807 354.591L512.01 380.665C519.713 377.651 526.535 373.288 532.292 367.531L512.493 347.733ZM502.056 354.496C497.828 356.058 492.776 356.96 486.721 356.96V384.96C495.561 384.96 503.968 383.64 511.762 380.76L502.056 354.496ZM486.721 366.34C493.93 366.34 500.867 364.551 507.031 360.588L491.89 337.036C490.737 337.777 489.181 338.34 486.721 338.34V366.34ZM507.031 360.588C513.368 356.515 517.859 350.7 520.757 343.939L495.021 332.909C493.998 335.295 492.871 336.405 491.89 337.036L507.031 360.588ZM520.682 344.11C523.792 337.111 525.025 329.224 525.025 320.98H497.025C497.025 326.586 496.166 330.329 495.095 332.738L520.682 344.11ZM525.025 320.98C525.025 308.912 522.516 297.177 514.913 288.456L493.808 306.856C495.091 308.327 497.025 312.141 497.025 320.98H525.025ZM515.028 288.589C507.73 280.003 497.833 275.816 486.721 275.816V303.816C490.243 303.816 492.106 304.856 493.694 306.723L515.028 288.589ZM486.721 275.816C479.511 275.816 472.574 277.605 466.41 281.567L481.551 305.12C482.705 304.379 484.261 303.816 486.721 303.816V275.816ZM466.715 281.377C460.157 285.358 455.574 291.272 452.563 298.046L478.15 309.418C479.321 306.784 480.487 305.772 481.246 305.311L466.715 281.377ZM452.489 298.217C449.55 305.074 448.417 312.852 448.417 320.98H476.417C476.417 315.258 477.243 311.537 478.225 309.247L452.489 298.217ZM448.417 320.98C448.417 333.042 450.977 344.602 458.304 353.437L479.857 335.563C478.299 333.684 476.417 329.563 476.417 320.98H448.417ZM458.414 353.567C465.712 362.153 475.608 366.34 486.721 366.34V338.34C483.199 338.34 481.335 337.3 479.748 335.433L458.414 353.567ZM539.478 402.712L529.579 412.611L529.579 412.611L539.478 402.712ZM539.478 274.724L529.579 264.824L529.579 264.825L539.478 274.724ZM557.314 274.724L567.214 264.824L567.214 264.824L557.314 274.724ZM560.45 299.224L547.306 304.044L574.45 299.224H560.45ZM558.294 293.344L544.863 289.394L543.56 293.826L545.15 298.164L558.294 293.344ZM570.25 277.272L562.542 265.585L562.484 265.623L562.426 265.662L570.25 277.272ZM613.566 277.272L605.971 289.033L606.026 289.068L606.081 289.103L613.566 277.272ZM628.462 294.52L615.81 300.513L615.831 300.557L615.852 300.6L628.462 294.52ZM628.462 347.636L641.115 353.629L641.135 353.587L641.155 353.544L628.462 347.636ZM613.762 364.884L606.167 353.123L606.167 353.123L613.762 364.884ZM570.642 365.08L562.818 376.69L562.906 376.749L562.995 376.807L570.642 365.08ZM558.49 349.4V335.4H539.191L545.182 353.746L558.49 349.4ZM560.842 349.4H574.842V335.4H560.842V349.4ZM557.51 402.712L547.915 392.517L547.761 392.663L547.611 392.813L557.51 402.712ZM597.494 348.812L589.924 337.035L589.924 337.036L597.494 348.812ZM605.922 338.424L593.129 332.738L593.091 332.823L593.054 332.909L605.922 338.424ZM602.394 297.656L591.727 306.723L591.784 306.79L591.842 306.856L602.394 297.656ZM572.014 293.344L579.28 305.311L579.434 305.218L579.585 305.12L572.014 293.344ZM563.39 303.732L550.597 298.046L550.559 298.131L550.522 298.217L563.39 303.732ZM567.114 344.5L556.338 353.437L556.392 353.502L556.447 353.567L567.114 344.5ZM548.494 391.848C547.751 391.848 547.626 391.746 547.9 391.841C548.045 391.892 548.276 391.989 548.555 392.161C548.837 392.334 549.119 392.554 549.378 392.813L529.579 412.611C535.065 418.097 542.114 419.848 548.494 419.848V391.848ZM549.378 392.813C549.663 393.098 549.895 393.4 550.071 393.691C550.245 393.977 550.337 394.204 550.379 394.329C550.457 394.557 550.342 394.356 550.342 393.5H522.342C522.342 399.858 524.013 407.045 529.579 412.611L549.378 392.813ZM550.342 393.5V283.936H522.342V393.5H550.342ZM550.342 283.936C550.342 283.08 550.457 282.879 550.379 283.107C550.337 283.232 550.245 283.459 550.071 283.745C549.895 284.036 549.663 284.338 549.378 284.623L529.579 264.825C524.013 270.391 522.342 277.578 522.342 283.936H550.342ZM549.378 284.623C549.146 284.856 548.884 285.063 548.612 285.233C548.341 285.401 548.106 285.504 547.941 285.563C547.622 285.677 547.67 285.588 548.298 285.588V257.588C541.891 257.588 534.98 259.424 529.579 264.824L549.378 284.623ZM548.298 285.588C549.042 285.588 549.167 285.69 548.893 285.595C548.748 285.544 548.516 285.447 548.238 285.275C547.956 285.102 547.674 284.882 547.415 284.623L567.214 264.824C561.728 259.339 554.679 257.588 548.298 257.588V285.588ZM547.415 284.623C547.13 284.338 546.898 284.036 546.722 283.745C546.548 283.459 546.456 283.232 546.413 283.107C546.336 282.879 546.45 283.08 546.45 283.936H574.45C574.45 277.578 572.78 270.391 567.214 264.824L547.415 284.623ZM546.45 283.936V299.224H574.45V283.936H546.45ZM573.595 294.404L571.439 288.524L545.15 298.164L547.306 304.044L573.595 294.404ZM571.725 297.294C572.723 293.903 574.64 291.196 578.074 288.882L562.426 265.662C553.839 271.449 547.786 279.457 544.863 289.394L571.725 297.294ZM577.959 288.959C581.583 286.568 585.965 285.196 591.614 285.196V257.196C581.061 257.196 571.2 259.874 562.542 265.585L577.959 288.959ZM591.614 285.196C597.617 285.196 602.228 286.615 605.971 289.033L621.162 265.511C612.361 259.828 602.337 257.196 591.614 257.196V285.196ZM606.081 289.103C610.048 291.612 613.313 295.243 615.81 300.513L641.115 288.527C636.555 278.901 629.89 271.033 621.051 265.441L606.081 289.103ZM615.852 300.6C618.252 305.579 619.754 312.21 619.754 320.98H647.754C647.754 309.104 645.728 298.095 641.073 288.44L615.852 300.6ZM619.754 320.98C619.754 329.569 618.269 336.36 615.77 341.728L641.155 353.544C645.712 343.755 647.754 332.775 647.754 320.98H619.754ZM615.81 341.643C613.278 346.988 610.026 350.631 606.167 353.123L621.358 376.645C630.043 371.035 636.59 363.18 641.115 353.629L615.81 341.643ZM606.167 353.123C602.459 355.518 597.794 356.96 591.614 356.96V384.96C602.421 384.96 612.522 382.351 621.358 376.645L606.167 353.123ZM591.614 356.96C586.048 356.96 581.778 355.628 578.29 353.353L562.995 376.807C571.528 382.372 581.24 384.96 591.614 384.96V356.96ZM578.466 353.47C574.832 351.021 572.846 348.26 571.799 345.054L545.182 353.746C548.316 363.345 554.432 371.038 562.818 376.69L578.466 353.47ZM558.49 363.4H560.842V335.4H558.49V363.4ZM546.842 349.4V393.5H574.842V349.4H546.842ZM546.842 393.5C546.842 394.277 546.732 394.388 546.844 394.079C546.903 393.915 547.015 393.664 547.206 393.367C547.4 393.067 547.64 392.776 547.915 392.517L567.105 412.907C572.974 407.383 574.842 400.089 574.842 393.5H546.842ZM547.611 392.813C547.87 392.554 548.152 392.334 548.433 392.161C548.712 391.989 548.944 391.892 549.089 391.841C549.363 391.746 549.238 391.848 548.494 391.848V419.848C554.875 419.848 561.924 418.097 567.41 412.611L547.611 392.813ZM584.754 366.34C591.964 366.34 598.901 364.551 605.065 360.588L589.924 337.036C588.77 337.777 587.214 338.34 584.754 338.34V366.34ZM605.065 360.589C611.401 356.515 615.893 350.7 618.79 343.939L593.054 332.909C592.032 335.295 590.905 336.405 589.924 337.035L605.065 360.589ZM618.716 344.11C621.826 337.111 623.058 329.224 623.058 320.98H595.058C595.058 326.586 594.2 330.329 593.129 332.738L618.716 344.11ZM623.058 320.98C623.058 308.912 620.55 297.177 612.947 288.456L591.842 306.856C593.124 308.327 595.058 312.141 595.058 320.98H623.058ZM613.062 288.589C605.763 280.003 595.867 275.816 584.754 275.816V303.816C588.276 303.816 590.14 304.856 591.727 306.723L613.062 288.589ZM584.754 275.816C577.545 275.816 570.608 277.605 564.444 281.568L579.585 305.12C580.738 304.379 582.294 303.816 584.754 303.816V275.816ZM564.749 281.377C558.191 285.358 553.608 291.272 550.597 298.046L576.184 309.418C577.354 306.784 578.521 305.772 579.28 305.311L564.749 281.377ZM550.522 298.217C547.584 305.074 546.45 312.852 546.45 320.98H574.45C574.45 315.258 575.277 311.537 576.258 309.247L550.522 298.217ZM546.45 320.98C546.45 333.042 549.011 344.602 556.338 353.437L577.891 335.563C576.332 333.684 574.45 329.563 574.45 320.98H546.45ZM556.447 353.567C563.745 362.153 573.642 366.34 584.754 366.34V338.34C581.232 338.34 579.369 337.3 577.782 335.433L556.447 353.567ZM651.514 369.196L654.094 355.436L654.094 355.436L651.514 369.196ZM634.658 363.12L627.238 374.992L627.438 375.117L627.643 375.236L634.658 363.12ZM630.15 358.612L617.282 364.127L617.527 364.7L617.823 365.249L630.15 358.612ZM629.17 353.32L615.31 351.34L615.246 351.792L615.211 352.246L629.17 353.32ZM631.13 348.616L620.724 339.25L620.452 339.553L620.198 339.87L631.13 348.616ZM635.442 346.068L632.508 332.379L632.401 332.402L632.294 332.427L635.442 346.068ZM641.322 347.048L635.061 359.57L635.187 359.633L635.315 359.694L641.322 347.048ZM656.022 352.34L652.902 365.988L653.089 366.031L653.276 366.068L656.022 352.34ZM683.462 350.576L691.457 362.069L691.506 362.035L691.554 362L683.462 350.576ZM685.03 335.092L675.861 345.672L676.234 345.995L676.63 346.292L685.03 335.092ZM676.014 331.368L678.674 317.623L678.651 317.619L678.627 317.614L676.014 331.368ZM656.414 327.644L653.753 341.389L653.777 341.393L653.801 341.398L656.414 327.644ZM637.794 318.824L627.599 328.419L627.744 328.574L627.894 328.723L637.794 318.824ZM636.618 285.504L625.533 276.953L625.455 277.053L625.379 277.155L636.618 285.504ZM688.362 273.156L684.799 286.695L685.006 286.749L685.214 286.797L688.362 273.156ZM703.062 278.84L696.263 291.078L696.368 291.136L696.474 291.193L703.062 278.84ZM706.982 282.956L693.915 287.982L694.079 288.408L694.27 288.823L706.982 282.956ZM707.57 288.248L721.211 291.396L721.236 291.289L721.259 291.181L707.57 288.248ZM705.218 292.952L715.624 302.318L715.844 302.072L716.053 301.817L705.218 292.952ZM700.71 295.5L702.839 309.337L703.243 309.275L703.643 309.189L700.71 295.5ZM694.83 294.324L688.409 306.765L688.637 306.882L688.869 306.991L694.83 294.324ZM683.07 289.816L679.674 303.398L679.73 303.412L679.785 303.425L683.07 289.816ZM658.178 291.776L650.086 280.352L649.97 280.433L649.856 280.518L658.178 291.776ZM664.842 311.18L667.455 297.426L667.338 297.404L667.22 297.384L664.842 311.18ZM684.442 314.904L681.829 328.658L681.864 328.665L681.9 328.671L684.442 314.904ZM703.65 323.528L693.904 333.579L693.979 333.651L694.055 333.723L703.65 323.528ZM699.142 362.924L707.317 374.289L707.382 374.242L707.447 374.195L699.142 362.924ZM669.35 356.96C664.704 356.96 659.627 356.473 654.094 355.436L648.934 382.956C655.944 384.271 662.758 384.96 669.35 384.96V356.96ZM654.094 355.436C649.209 354.52 645.118 352.999 641.672 351.004L627.643 375.236C634.128 378.99 641.275 381.52 648.934 382.956L654.094 355.436ZM642.078 351.248C641.488 350.879 641.96 351.016 642.476 351.975L617.823 365.249C620.169 369.606 623.646 372.747 627.238 374.992L642.078 351.248ZM643.018 353.097C642.99 353.032 643.038 353.127 643.083 353.368C643.129 353.617 643.161 353.97 643.129 354.394L615.211 352.246C614.88 356.548 615.758 360.571 617.282 364.127L643.018 353.097ZM643.029 355.3C643.007 355.453 642.945 355.759 642.779 356.157C642.61 356.562 642.369 356.978 642.062 357.362L620.198 339.87C617.43 343.33 615.888 347.3 615.31 351.34L643.029 355.3ZM641.536 357.982C641.223 358.329 640.782 358.715 640.212 359.052C639.641 359.389 639.077 359.597 638.59 359.709L632.294 332.427C627.769 333.471 623.805 335.826 620.724 339.25L641.536 357.982ZM638.375 359.757C637.463 359.953 636.63 359.937 635.982 359.829C635.368 359.726 635.05 359.564 635.061 359.57L647.583 334.526C643.374 332.422 638.156 331.169 632.508 332.379L638.375 359.757ZM635.315 359.694C641.26 362.518 647.134 364.669 652.902 365.988L659.141 338.692C655.763 337.92 651.837 336.544 647.329 334.402L635.315 359.694ZM653.276 366.068C658.709 367.155 664.137 367.712 669.546 367.712V339.712C666.07 339.712 662.482 339.355 658.767 338.612L653.276 366.068ZM669.546 367.712C676.858 367.712 684.959 366.589 691.457 362.069L675.467 339.083C675.819 338.838 675.709 339.032 674.651 339.27C673.603 339.507 671.954 339.712 669.546 339.712V367.712ZM691.554 362C698.008 357.428 702.166 350.475 702.166 341.952H674.166C674.166 341.56 674.276 340.827 674.699 340.05C675.1 339.316 675.497 339.061 675.37 339.152L691.554 362ZM702.166 341.952C702.166 335.293 699.608 328.525 693.43 323.892L676.63 346.292C675.881 345.73 675.138 344.872 674.649 343.804C674.19 342.799 674.166 342.072 674.166 341.952H702.166ZM694.199 324.512C689.596 320.523 683.847 318.624 678.674 317.623L673.353 345.113C674.692 345.372 675.519 345.644 675.961 345.827C676.408 346.011 676.267 346.024 675.861 345.672L694.199 324.512ZM678.627 317.614L659.027 313.89L653.801 341.398L673.401 345.122L678.627 317.614ZM659.074 313.899C652.77 312.679 649.444 310.675 647.693 308.925L627.894 328.723C634.768 335.597 643.855 339.473 653.753 341.389L659.074 313.899ZM647.989 309.229C646.586 307.739 645.522 305.651 645.522 301.772H617.522C617.522 311.744 620.639 321.024 627.599 328.419L647.989 309.229ZM645.522 301.772C645.522 298.187 646.434 295.767 647.856 293.853L625.379 277.155C620.007 284.388 617.522 292.813 617.522 301.772H645.522ZM647.703 294.055C649.501 291.724 652.188 289.59 656.369 287.9L645.875 261.94C637.773 265.216 630.791 270.137 625.533 276.953L647.703 294.055ZM656.369 287.9C660.541 286.213 665.761 285.196 672.29 285.196V257.196C662.878 257.196 653.985 258.662 645.875 261.94L656.369 287.9ZM672.29 285.196C676.978 285.196 681.126 285.728 684.799 286.695L691.925 259.617C685.667 257.97 679.1 257.196 672.29 257.196V285.196ZM685.214 286.797C688.996 287.67 692.671 289.083 696.263 291.078L709.861 266.602C704.045 263.371 697.919 260.994 691.51 259.515L685.214 286.797ZM696.474 291.193C696.356 291.13 695.912 290.874 695.374 290.308C694.809 289.715 694.277 288.924 693.915 287.982L720.049 277.93C717.935 272.436 713.898 268.752 709.65 266.487L696.474 291.193ZM694.27 288.823C694.066 288.38 693.879 287.792 693.802 287.099C693.725 286.406 693.778 285.791 693.881 285.315L721.259 291.181C722.286 286.39 721.747 281.538 719.693 277.089L694.27 288.823ZM693.928 285.1C693.983 284.865 694.066 284.637 694.166 284.437C694.264 284.24 694.352 284.124 694.382 284.087L716.053 301.817C718.5 298.826 720.304 295.326 721.211 291.396L693.928 285.1ZM694.812 283.586C695.217 283.136 695.73 282.715 696.32 282.381C696.903 282.052 697.42 281.887 697.776 281.811L703.643 309.189C708.16 308.221 712.344 305.961 715.624 302.318L694.812 283.586ZM698.581 281.663C699.591 281.507 700.343 281.6 700.711 281.674C701.06 281.744 701.1 281.802 700.791 281.657L688.869 306.991C692.577 308.737 697.441 310.168 702.839 309.337L698.581 281.663ZM701.251 281.883C696.368 279.363 691.397 277.424 686.355 276.207L679.785 303.425C682.321 304.037 685.19 305.103 688.409 306.765L701.251 281.883ZM686.465 276.234C681.816 275.072 677.145 274.444 672.486 274.444V302.444C674.621 302.444 677.006 302.731 679.674 303.398L686.465 276.234ZM672.486 274.444C664.931 274.444 656.696 275.669 650.086 280.352L666.27 303.2C666.013 303.383 666.2 303.164 667.282 302.912C668.364 302.66 670.047 302.444 672.486 302.444V274.444ZM649.856 280.518C643.37 285.312 639.67 292.385 639.67 300.596H667.67C667.67 300.739 667.625 301.31 667.263 302.019C667.097 302.343 666.912 302.6 666.75 302.786C666.592 302.968 666.488 303.043 666.499 303.034L649.856 280.518ZM639.67 300.596C639.67 306.803 641.888 312.729 646.514 317.355L666.313 297.557C666.67 297.914 667.072 298.464 667.354 299.17C667.63 299.858 667.67 300.39 667.67 300.596H639.67ZM646.514 317.355C651.162 322.003 657.137 324.058 662.463 324.976L667.22 297.384C666.186 297.205 665.683 297.012 665.551 296.953C665.438 296.903 665.8 297.043 666.313 297.557L646.514 317.355ZM662.229 324.934L681.829 328.658L687.055 301.15L667.455 297.426L662.229 324.934ZM681.9 328.671C688.812 329.947 692.266 331.99 693.904 333.579L713.396 313.477C706.41 306.703 697.058 302.997 686.983 301.137L681.9 328.671ZM694.055 333.723C695.239 334.837 696.314 336.528 696.314 340.384H724.314C724.314 330.128 720.946 320.581 713.245 313.333L694.055 333.723ZM696.314 340.384C696.314 345.637 694.575 348.899 690.837 351.653L707.447 374.195C718.605 365.973 724.314 354.208 724.314 340.384H696.314ZM690.967 351.559C686.612 354.691 679.848 356.96 669.35 356.96V384.96C683.679 384.96 696.776 381.871 707.317 374.289L690.967 351.559Z" fill="white" mask="url(#path-7-outside-1_424_13113)"/>
</g>
<defs>
<filter id="filter0_f_424_13113" x="110.916" y="15.4163" width="637.167" height="594.167" filterUnits="userSpaceOnUse" color-interpolation-filters="sRGB">
<feFlood flood-opacity="0" result="BackgroundImageFix"/>
<feBlend mode="normal" in="SourceGraphic" in2="BackgroundImageFix" result="shape"/>
<feGaussianBlur stdDeviation="77.0419" result="effect1_foregroundBlur_424_13113"/>
</filter>
<filter id="filter1_f_424_13113" x="-6.08374" y="-4.58374" width="607.167" height="580.167" filterUnits="userSpaceOnUse" color-interpolation-filters="sRGB">
<feFlood flood-opacity="0" result="BackgroundImageFix"/>
<feBlend mode="normal" in="SourceGraphic" in2="BackgroundImageFix" result="shape"/>
<feGaussianBlur stdDeviation="77.0419" result="effect1_foregroundBlur_424_13113"/>
</filter>
<filter id="filter2_f_424_13113" x="231.916" y="44.4163" width="609.167" height="591.167" filterUnits="userSpaceOnUse" color-interpolation-filters="sRGB">
<feFlood flood-opacity="0" result="BackgroundImageFix"/>
<feBlend mode="normal" in="SourceGraphic" in2="BackgroundImageFix" result="shape"/>
<feGaussianBlur stdDeviation="77.0419" result="effect1_foregroundBlur_424_13113"/>
</filter>
<filter id="filter3_f_424_13113" x="382.916" y="67.4163" width="561.167" height="542.167" filterUnits="userSpaceOnUse" color-interpolation-filters="sRGB">
<feFlood flood-opacity="0" result="BackgroundImageFix"/>
<feBlend mode="normal" in="SourceGraphic" in2="BackgroundImageFix" result="shape"/>
<feGaussianBlur stdDeviation="77.0419" result="effect1_foregroundBlur_424_13113"/>
</filter>
<filter id="filter4_f_424_13113" x="80.9163" y="7.41626" width="636.167" height="593.167" filterUnits="userSpaceOnUse" color-interpolation-filters="sRGB">
<feFlood flood-opacity="0" result="BackgroundImageFix"/>
<feBlend mode="normal" in="SourceGraphic" in2="BackgroundImageFix" result="shape"/>
<feGaussianBlur stdDeviation="77.0419" result="effect1_foregroundBlur_424_13113"/>
</filter>
<clipPath id="clip0_424_13113">
<rect width="938" height="631" rx="20" fill="white"/>
</clipPath>
</defs>
</svg>
